<svg width="134" height="36" viewBox="0 0 134 36" fill="none" xmlns="http://www.w3.org/2000/svg">
<path fill-rule="evenodd" clip-rule="evenodd" d="M26.1626 15.9309V32.9878C26.1626 33.0863 26.1465 33.2995 25.9925 33.3845C23.5175 35.1278 20.2404 36 16.1613 36C8.77054 36 0 33.7245 0 18.4503C0 3.17607 7.66052 0 15.1288 0C21.6116 0 24.1778 1.43527 24.5979 1.73587C24.7519 1.84675 24.7975 2.00938 24.7975 2.14366L23.5495 7.42767C23.5495 7.71596 23.2489 8.03997 22.9237 7.94141C22.8189 7.90902 22.708 7.8731 22.5896 7.83469C21.5364 7.49334 19.878 6.95582 16.4816 6.95582C12.1166 6.95582 7.46833 8.24818 7.46833 18.0671C7.46833 27.8849 11.9331 29.0528 15.1288 29.0528C16.9349 29.0528 18.1645 28.9419 18.8174 28.7189V21.9233H14.4537C14.1654 21.9233 13.9313 21.688 13.9313 21.3997V15.9309C13.9313 15.6426 14.1654 15.4073 14.4537 15.4073H25.6402C25.9285 15.4073 26.1626 15.6414 26.1626 15.9309ZM83.2912 34.7878C83.2912 35.0785 83.0596 35.315 82.7713 35.315H76.4574C76.1691 35.315 75.9362 35.0785 75.9362 34.7878C75.9362 34.7865 75.9424 30.0877 75.9535 20.6901H66.1357V34.7878C66.1357 35.0785 65.9041 35.315 65.6158 35.315H59.3179C59.0308 35.315 58.798 35.0785 58.798 34.7878V1.8283C58.798 1.53755 59.0321 1.30225 59.3179 1.30225H65.6158C65.9041 1.30225 66.1357 1.53755 66.1357 1.8283V14.0004H75.9535C75.9522 5.88648 75.9522 1.8283 75.9522 1.8283C75.9522 1.53755 76.1863 1.30225 76.4734 1.30225H82.7725C83.0608 1.30225 83.2912 1.53755 83.2912 1.8283V34.7878ZM29.4039 6.15254C29.4039 8.41817 31.2236 10.2563 33.4646 10.2563C35.708 10.2563 37.5265 8.41817 37.5265 6.15254C37.5265 3.88444 35.708 2.05124 33.4646 2.05124C31.2236 2.05124 29.4039 3.88444 29.4039 6.15254ZM37.0768 34.4686C37.0768 35.0045 36.9252 35.31 36.3043 35.31H30.647C30.1308 35.31 29.7316 35.1191 29.7316 34.4784V12.6808C29.7316 12.3925 29.9891 12.0944 30.2774 12.0944H36.5569C36.8452 12.0944 37.078 12.3309 37.078 12.6192V27.8331V34.4673L37.0768 34.4686ZM107.754 34.7976L107.751 12.6723V12.671C107.751 12.3803 107.518 12.1437 107.23 12.1437H100.979C100.692 12.1437 100.459 12.3803 100.459 12.671V28.8323C99.4007 29.6072 98.1207 29.994 96.6177 29.994C94.3644 29.994 93.7656 28.9715 93.7656 26.765V12.671C93.7656 12.3803 93.5328 12.1437 93.2457 12.1437H86.9022C86.6151 12.1437 86.3811 12.3803 86.3811 12.671V27.8319C86.3811 34.3861 90.0339 35.9901 95.0592 35.9901C97.8078 35.9901 100.29 35.2312 102.507 33.7122C102.613 34.513 102.689 34.9602 102.737 35.0551C102.808 35.198 102.994 35.3409 103.197 35.3409L107.232 35.3236C107.52 35.3236 107.754 35.0871 107.754 34.7976ZM133.123 22.8917C133.123 33.0506 129.831 35.9631 124.091 35.9631C120.831 35.9631 118.34 35.1475 116.619 33.5151C116.514 34.4108 116.426 34.9171 116.353 35.0354C116.242 35.214 116.093 35.315 115.896 35.315H111.514C111.225 35.315 110.993 35.0785 110.993 34.7878V1.8283C110.993 1.53755 111.225 1.30225 111.514 1.30225H117.83C118.117 1.30225 118.35 1.53755 118.35 1.8283V12.9889C119.96 11.9331 121.947 11.4046 124.314 11.4046C127.867 11.4046 133.124 12.7327 133.124 22.8917H133.123ZM125.859 23.2866C125.859 17.9181 123.691 17.2381 121.44 17.4389C120.253 17.5448 119.177 17.8947 118.21 18.4873V28.9247C119.19 29.5801 120.402 29.93 121.848 29.9744C124.881 30.0655 125.859 28.9482 125.859 23.2866ZM55.7008 17.695V12.6192C55.7008 12.3285 55.4679 12.0944 55.1796 12.0944H50.4549L50.4475 5.85191C50.4475 5.61537 50.3256 5.4971 50.0521 5.4971H43.6137C43.3636 5.4971 43.2293 5.60798 43.2293 5.84822V12.2989C41.0782 12.8176 39.93 13.0985 39.7847 13.1404C39.5678 13.2032 39.4077 13.404 39.4077 13.643V17.6963C39.4077 17.987 39.6405 18.2223 39.9288 18.2223H43.2305V27.9735C43.2305 35.2164 48.31 35.9273 51.7387 35.9273C53.3058 35.9273 55.1796 35.4246 55.4888 35.3101C55.6761 35.2411 55.7845 35.0476 55.7845 34.837L55.7895 30.3784C55.7895 30.0876 55.5443 29.8523 55.2671 29.8523C55.1618 29.8523 54.9944 29.8686 54.7872 29.8888C54.4512 29.9215 54.0109 29.9644 53.562 29.9644C51.2409 29.9644 50.4549 28.8852 50.4549 27.4881V18.2211H55.1796C55.4679 18.2211 55.7008 17.987 55.7008 17.695Z" fill="#909090"/>
</svg>
