<svg width="134" height="48" viewBox="0 0 134 48" fill="none" xmlns="http://www.w3.org/2000/svg">
<path fill-rule="evenodd" clip-rule="evenodd" d="M68.8402 14.813L75.1839 14.4029C75.3286 15.4401 75.594 16.212 76.0281 16.7667C76.7276 17.6351 77.6925 18.0693 78.9708 18.0693C79.9116 18.0693 80.6593 17.8522 81.1658 17.3939C81.6482 17.0321 81.9377 16.4532 81.9377 15.8502C81.9377 15.2713 81.6724 14.7165 81.2141 14.3547C80.7317 13.9205 79.598 13.4863 77.8131 13.1004C74.8945 12.4492 72.796 11.5808 71.5658 10.4713C70.3357 9.43409 69.6362 7.91449 69.6844 6.29841C69.6844 5.18886 70.0221 4.07931 70.6492 3.16273C71.3729 2.12554 72.3618 1.30544 73.5437 0.847151C74.8221 0.292377 76.607 0.00292969 78.8503 0.00292969C81.6 0.00292969 83.6985 0.509462 85.1457 1.54665C86.593 2.55971 87.4613 4.19991 87.7266 6.44313L81.4553 6.80494C81.2864 5.84012 80.9487 5.14062 80.394 4.68233C79.8392 4.22404 79.1156 4.00695 78.1749 4.00695C77.403 4.00695 76.8241 4.17579 76.4382 4.48936C76.0764 4.77881 75.8352 5.21298 75.8593 5.69539C75.8593 6.0572 76.0523 6.39489 76.3417 6.61198C76.6553 6.90142 77.403 7.16675 78.5849 7.40795C81.5035 8.03509 83.5779 8.66223 84.8563 9.31348C86.1347 9.96474 87.0513 10.7607 87.606 11.7014C87.655 11.7831 87.7019 11.8657 87.7467 11.9494C88.8813 9.1358 90.881 6.48122 93.6182 4.41854C100.459 -0.736918 109.585 -0.444312 113.949 5.34649C118.313 11.1373 116.079 19.9904 109.238 25.1459C108.934 25.3748 108.626 25.593 108.314 25.8005C110.699 26.1626 112.62 27.067 114.066 28.5135C115.039 29.4863 115.773 30.6553 116.261 32.0204V26.005H122.943V42.2622H133.339V47.5688H116.261V41.5261C116.102 41.9839 115.917 42.414 115.707 42.817C114.886 44.409 113.608 45.7115 112.04 46.5798C110.424 47.4723 108.422 47.9306 106.034 47.9306C103.598 47.9306 101.596 47.5447 100.004 46.7728C98.3638 45.9527 97.0131 44.6743 96.1206 43.1065C95.1317 41.418 94.6251 39.3195 94.6251 36.7869C94.6251 33.3691 95.5566 30.6784 97.3975 28.7367C94.0085 28.4212 90.9406 26.9166 88.9069 24.2179C87.8057 22.7567 87.1247 21.1004 86.8318 19.3578C86.0899 20.2455 85.152 20.9432 84.0844 21.3979C82.7095 22.0009 80.9729 22.3145 78.8985 22.3145C75.2322 22.3145 72.6995 21.615 71.2764 20.1919C69.8533 18.7688 69.009 16.9838 68.8402 14.813ZM1.5196 21.9286V0.388859H12.6392C14.6894 0.388859 16.2814 0.557703 17.3668 0.919512C18.4281 1.2572 19.3688 1.9567 19.996 2.8974C20.6955 3.93459 21.0332 5.14062 21.009 6.39489C21.0814 8.5175 19.996 10.5436 18.1387 11.6049C17.4151 12.015 16.6191 12.3044 15.799 12.4492C16.402 12.618 17.005 12.9075 17.5357 13.2451C17.9457 13.5828 18.2834 13.9688 18.597 14.3788C18.9588 14.7889 19.2724 15.2472 19.5377 15.7296L22.7698 21.9768H15.196L11.6261 15.3436C11.1678 14.4994 10.7819 13.9446 10.4201 13.6793C9.93769 13.3416 9.35879 13.1728 8.7799 13.1728H8.201V21.9286H1.5196ZM8.201 9.12052H11.0231C11.6261 9.07228 12.205 8.97579 12.7839 8.83107C13.2181 8.75871 13.604 8.5175 13.8693 8.15569C14.5206 7.28735 14.4241 6.0572 13.6281 5.30946C13.194 4.94765 12.3497 4.75469 11.1437 4.75469H8.201V9.12052ZM6.34372 40.019L0 40.4291C0.192965 42.5999 0.988945 44.3848 2.41206 45.8321C3.83518 47.2552 6.36784 47.9547 10.0342 47.9547C12.1085 47.9547 13.8452 47.6411 15.2201 47.0381C16.5226 46.4833 17.6322 45.5667 18.4281 44.3848C18.5688 44.1716 18.6974 43.9516 18.8137 43.7259C19.8407 45.2262 21.0325 46.2963 22.408 46.9175C23.8794 47.5929 25.809 47.9306 28.1487 47.9306C30.0784 47.9306 31.6704 47.6411 32.9246 47.0864C34.1548 46.5316 35.2402 45.6874 36.0603 44.6019C36.9528 43.3718 37.604 41.9728 37.9176 40.5014L32.0804 38.7406C31.791 40.0914 31.3085 41.1286 30.6573 41.8763C30.006 42.5758 29.0412 42.9376 27.7628 42.9376C26.4362 42.9376 25.4231 42.5034 24.6995 41.611C23.9759 40.7185 23.6141 39.0783 23.6141 36.6904C23.6141 34.7607 23.9276 33.3376 24.5307 32.4452C25.3266 31.215 26.4844 30.612 28.004 30.612C28.6312 30.612 29.2583 30.7326 29.8131 31.022C30.3678 31.3115 30.8261 31.6974 31.1879 32.2039C31.4774 32.6381 31.6945 33.1447 31.8392 33.6512L37.7246 32.3487C36.9528 30.0813 35.795 28.3929 34.2513 27.2833C32.6834 26.1979 30.5608 25.6431 27.8352 25.6431C24.3618 25.6431 21.6844 26.608 19.7789 28.5135C19.2642 29.0282 18.8199 29.6045 18.4455 30.2419C18.0155 28.9274 17.2969 27.9146 16.2814 27.1869C14.8342 26.1497 12.7357 25.6431 9.98593 25.6431C7.74271 25.6431 5.95779 25.9326 4.6794 26.4874C3.49749 26.9456 2.50854 27.7657 1.78492 28.8029C1.15779 29.7195 0.8201 30.8291 0.8201 31.9386C0.771859 33.5547 1.47136 35.0743 2.70151 36.1115C3.93166 37.221 6.03015 38.0894 8.94874 38.7406C10.7578 39.1265 11.8915 39.5607 12.3739 39.9949C12.8322 40.3567 13.0975 40.9115 13.0975 41.4904C13.0975 42.0934 12.808 42.6482 12.3256 43.0341C11.8191 43.4924 11.0714 43.7095 10.1307 43.7095C8.85226 43.7095 7.86332 43.2512 7.18794 42.3828C6.75377 41.8281 6.48844 41.0562 6.34372 40.019ZM17.5895 32.1554L12.5668 32.4451C12.398 31.4803 12.0603 30.7808 11.5055 30.3225C10.9749 29.8642 10.2271 29.6472 9.28643 29.6713C8.51457 29.6713 7.93568 29.8401 7.54975 30.1778C7.16382 30.4673 6.94673 30.9014 6.97085 31.3838C6.97085 31.7456 7.16382 32.0833 7.45327 32.3004C7.76683 32.5899 8.51457 32.8552 9.69648 33.0964C12.6151 33.7235 14.6894 34.3507 15.9678 35.0019C16.3299 35.1864 16.6629 35.3824 16.9669 35.59C17.0439 34.3312 17.251 33.1859 17.5895 32.1554ZM45.7085 26.005H52.3658V33.5547H59.6503V26.005H66.3558V31.6241C66.8405 30.4486 67.5166 29.4271 68.3819 28.5617C70.3357 26.608 73.0854 25.619 76.5829 25.619C80.1769 25.619 82.9266 26.5839 84.8804 28.5135C86.8342 30.4431 87.799 33.1447 87.799 36.618C87.799 39.1507 87.3648 41.2009 86.5206 42.817C85.7005 44.409 84.4221 45.7115 82.8543 46.5798C81.2382 47.4723 79.2362 47.9306 76.8482 47.9306C74.4121 47.9306 72.41 47.5447 70.8181 46.7728C69.1779 45.9527 67.8271 44.6743 66.9347 43.1065C66.7186 42.7376 66.5256 42.3491 66.3558 41.9408V47.5688H59.6503V38.8371H52.3658V47.5688H45.7085V26.005ZM73.3025 41.5145C72.5065 40.5497 72.0965 38.9818 72.0965 36.811C72.0965 34.616 72.5065 33.0482 73.3266 32.1075C74.1467 31.1668 75.3286 30.6361 76.5588 30.6844C77.9578 30.6844 79.0673 31.1426 79.8874 32.0834C80.7075 32.9999 81.1176 34.4954 81.1176 36.5215C81.1176 38.9336 80.7317 40.5979 79.9357 41.5386C79.1397 42.4793 78.0301 42.9376 76.607 42.9376C75.208 42.9376 74.0985 42.4552 73.3025 41.5145ZM101.282 36.811C101.282 38.9818 101.692 40.5497 102.488 41.5145C103.284 42.4552 104.394 42.9376 105.793 42.9376C107.216 42.9376 108.326 42.4793 109.122 41.5386C109.918 40.5979 110.304 38.9336 110.304 36.5215C110.304 34.4954 109.893 32.9999 109.073 32.0834C108.253 31.1426 107.144 30.6844 105.745 30.6844C104.515 30.6361 103.309 31.1668 102.513 32.1075C101.692 33.0482 101.282 34.616 101.282 36.811ZM94.1989 5.18907C87.6352 10.1353 85.7354 18.4062 89.6774 23.6373C93.6195 28.8683 102.094 29.3216 108.657 24.3753C115.221 19.4291 117.121 11.1582 113.179 5.92715C109.237 0.696116 100.763 0.242815 94.1989 5.18907ZM94.6493 13.197L97.0613 11.5086L100.028 15.7297C100.535 16.405 100.921 17.1287 101.21 17.9246C101.379 18.5276 101.331 19.1789 101.089 19.7578C100.776 20.4814 100.269 21.0844 99.594 21.5186C98.798 22.0734 98.1227 22.3869 97.5438 22.4834C96.989 22.5799 96.4101 22.4834 95.8794 22.2422C95.3005 21.9528 94.794 21.5427 94.4081 21.0121L96.4825 19.0824C96.6513 19.3477 96.8684 19.589 97.1096 19.7819C97.2784 19.9025 97.4714 19.9749 97.6885 19.9749C97.8573 19.9749 98.0262 19.9025 98.1468 19.806C98.388 19.6613 98.5568 19.3719 98.5327 19.0824C98.4603 18.6724 98.2915 18.2623 98.0262 17.9488L94.6493 13.197ZM101.885 15.8744L104.08 14.1377C104.322 14.4271 104.635 14.6442 104.973 14.7648C105.455 14.9096 105.962 14.8131 106.372 14.4995C106.661 14.3065 106.903 14.0412 106.999 13.7035C107.144 13.2694 106.903 12.7869 106.468 12.6422C106.396 12.6181 106.324 12.594 106.251 12.594C105.962 12.5699 105.455 12.6905 104.708 13.004C103.477 13.5106 102.513 13.7035 101.789 13.6312C101.089 13.5588 100.438 13.197 100.052 12.594C99.7628 12.1839 99.6181 11.7015 99.594 11.2191C99.594 10.6643 99.7387 10.1096 100.052 9.65126C100.511 9.00001 101.065 8.44523 101.741 8.01106C102.754 7.31157 103.646 6.97388 104.418 6.97388C105.19 6.97388 105.914 7.33569 106.589 8.08342L104.418 9.79599C103.984 9.24121 103.164 9.12061 102.609 9.55478L102.537 9.62714C102.296 9.77187 102.127 9.98895 102.03 10.2543C101.958 10.4472 102.006 10.6643 102.127 10.8332C102.223 10.9538 102.368 11.0503 102.537 11.0503C102.73 11.0744 103.067 10.9779 103.55 10.7608C104.756 10.2543 105.672 9.96483 106.3 9.86835C106.83 9.77187 107.385 9.82011 107.891 10.0372C108.35 10.2302 108.736 10.5678 109.001 10.9779C109.339 11.4603 109.532 12.0392 109.556 12.6422C109.58 13.2694 109.411 13.8724 109.073 14.403C108.639 15.0543 108.084 15.6091 107.433 16.0432C106.107 16.9598 105.021 17.3457 104.153 17.201C103.212 17.0563 102.44 16.5739 101.885 15.8744Z" fill="#909090"/>
</svg>
