<svg width="134" height="48" viewBox="0 0 134 48" fill="none" xmlns="http://www.w3.org/2000/svg">
<path fill-rule="evenodd" clip-rule="evenodd" d="M66.532 14.8233L72.8842 14.4246C73.0227 15.4571 73.303 16.2432 73.725 16.7828C74.4144 17.6575 75.397 18.0948 76.6727 18.0948C77.6247 18.0948 78.3592 17.8717 78.8763 17.4255C79.1131 17.2403 79.3054 17.0044 79.4392 16.7351C79.573 16.4659 79.6448 16.1701 79.6495 15.8695C79.6455 15.5813 79.5786 15.2974 79.4534 15.0378C79.3282 14.7782 79.1477 14.5491 78.9246 14.3666C78.4414 13.9253 77.3018 13.5073 75.5057 13.1126C72.5773 12.4554 70.4889 11.5808 69.2406 10.4886C68.6331 9.97982 68.148 9.3407 67.8213 8.61874C67.4946 7.89679 67.3347 7.11052 67.3535 6.31832C67.3581 5.19879 67.6945 4.10576 68.32 3.17728C69.0344 2.13081 70.0436 1.32013 71.2194 0.84808C72.508 0.282693 74.2799 0 76.535 0C79.2959 0 81.4012 0.513841 82.8509 1.54152C84.3006 2.56921 85.1632 4.20255 85.4386 6.44154L79.1445 6.8088C78.9834 5.84233 78.6323 5.13519 78.091 4.68739C77.5498 4.23959 76.8088 4.0165 75.8681 4.01811C75.0926 4.01811 74.5078 4.18483 74.1164 4.51343C73.9315 4.6556 73.7821 4.83866 73.6798 5.04826C73.5775 5.25786 73.5252 5.4883 73.5269 5.72152C73.5327 5.9025 73.5792 6.07985 73.6628 6.24045C73.7465 6.40104 73.8652 6.54078 74.0101 6.64933C74.3242 6.93444 75.0708 7.20022 76.2499 7.44667C79.1686 8.07488 81.2627 8.71114 82.532 9.35546C83.8013 9.99977 84.7194 10.7979 85.2864 11.7499C85.8651 12.7156 86.1637 13.8232 86.149 14.9489C86.156 16.312 85.7564 17.6462 85.0013 18.781C84.2154 19.9642 83.0975 20.8889 81.7878 21.4388C80.4106 22.0428 78.6758 22.3449 76.5833 22.3449C72.9091 22.3449 70.3641 21.6377 68.9482 20.2234C67.5323 18.8092 66.7269 17.0091 66.532 14.8233ZM1.51495 21.9824V0.364844H12.6439C14.7073 0.364844 16.2843 0.541225 17.3748 0.893988C18.4489 1.23708 19.3776 1.92934 20.0132 2.86076C20.7051 3.89458 21.0573 5.1184 21.0208 6.36181C21.0488 7.44688 20.7816 8.51918 20.2476 9.46419C19.7352 10.3402 19.0096 11.0725 18.1383 11.5928C17.4057 11.9969 16.6152 12.2854 15.7946 12.4482C16.4086 12.629 16.9936 12.8967 17.5318 13.2431C17.9318 13.5756 18.2918 13.9534 18.6046 14.369C18.9565 14.7821 19.268 15.2279 19.5348 15.7004L22.7677 21.9824H15.222L11.6557 15.3693C11.203 14.514 10.8003 13.9583 10.4476 13.7022C9.96687 13.369 9.3942 13.1942 8.8094 13.202H8.21502V21.9824H1.51495ZM8.21502 9.11867H11.0371C11.6344 9.07408 12.2263 8.97542 12.8058 8.8239C13.2388 8.74082 13.6249 8.4986 13.8882 8.14495C14.1666 7.78772 14.3149 7.34624 14.3086 6.89337C14.3268 6.59271 14.2764 6.29186 14.1613 6.01352C14.0462 5.73518 13.8694 5.48662 13.6442 5.28661C13.2028 4.9129 12.3725 4.72605 11.1531 4.72605H8.21502V9.11867ZM0 40.4807L6.35215 40.0845C6.49067 41.117 6.77095 41.903 7.19298 42.4427C7.87434 43.3173 8.85934 43.7547 10.148 43.7547C11.0999 43.7547 11.8345 43.5308 12.3515 43.083C12.5883 42.8977 12.7807 42.6618 12.9144 42.3926C13.0482 42.1233 13.1201 41.8275 13.1247 41.5269C13.1205 41.2388 13.0534 40.955 12.9282 40.6955C12.803 40.4359 12.6227 40.2068 12.3999 40.0241C11.9166 39.5827 10.777 39.1655 8.98095 38.7725C6.05254 38.1121 3.96415 37.2374 2.71579 36.1485C2.10839 35.6391 1.6234 34.9995 1.29674 34.2772C0.970087 33.5549 0.81014 32.7683 0.828751 31.9758C0.834099 30.8563 1.17036 29.7635 1.79522 28.8347C2.50963 27.7883 3.51878 26.9776 4.69464 26.5055C5.98327 25.9401 7.75514 25.6574 10.0102 25.6574C12.7711 25.6574 14.8764 26.1713 16.3261 27.199C17.7759 28.2267 18.6384 29.86 18.9139 32.099L12.6318 32.4687C12.4707 31.5022 12.1196 30.7942 11.5783 30.3448C11.0371 29.8954 10.297 29.6748 9.35788 29.6828C8.58309 29.6828 7.99918 29.8439 7.60614 30.166C7.42126 30.3082 7.27182 30.4913 7.16953 30.7009C7.06725 30.9105 7.0149 31.1409 7.0166 31.3741C7.0221 31.5555 7.0684 31.7333 7.15206 31.8944C7.23572 32.0554 7.35459 32.1956 7.49983 32.3044C7.81394 32.5895 8.56054 32.8544 9.73963 33.0993C12.6584 33.7275 14.7524 34.3638 16.0217 35.0081C17.291 35.6524 18.2092 36.4505 18.7762 37.4025C19.3545 38.3684 19.6531 39.4759 19.6387 40.6015C19.646 41.9646 19.2464 43.2989 18.491 44.4336C17.7052 45.6168 16.5872 46.5415 15.2775 47.0914C13.9003 47.6954 12.1655 47.9975 10.0731 47.9975C6.39886 47.9975 3.85381 47.2903 2.43793 45.8761C1.02205 44.4618 0.209403 42.6633 0 40.4807ZM39.3838 38.787L45.2358 40.5556C44.9121 42.0402 44.279 43.4398 43.3777 44.6631C42.5565 45.744 41.4762 46.6007 40.2367 47.1542C38.9835 47.7132 37.3888 47.9926 35.4527 47.9926C33.1041 47.9926 31.1857 47.652 29.6973 46.9706C28.2089 46.2892 26.9203 45.0884 25.8314 43.3681C24.749 41.6493 24.2085 39.4498 24.2102 36.7695C24.2102 33.1967 25.1605 30.4495 27.0613 28.5279C28.962 26.6062 31.652 25.6462 35.1313 25.6478C37.8551 25.6478 39.9951 26.1987 41.5511 27.3004C43.1071 28.4022 44.2637 30.0936 45.0207 32.3744L39.1253 33.6864C38.9868 33.1722 38.7683 32.683 38.4777 32.2367C38.1206 31.7409 37.6512 31.3369 37.1077 31.0576C36.5445 30.777 35.9224 30.6353 35.2932 30.6444C33.7807 30.6444 32.6217 31.2533 31.8163 32.4711C31.2042 33.3747 30.899 34.793 30.9006 36.726C30.9006 39.1196 31.2646 40.761 31.9927 41.6502C32.7208 42.5393 33.7428 42.9831 35.0588 42.9815C36.3346 42.9815 37.301 42.6231 37.9582 41.9063C38.6154 41.1895 39.0906 40.1497 39.3838 38.787ZM50.3798 26.0223H57.0557V33.5801H64.3526V26.0223H71.0575V47.6302H64.3526V38.8957H57.0557V47.6375H50.3798V26.0223ZM75.2134 36.8395C75.2134 33.3151 76.1959 30.5687 78.1611 28.6004C80.1263 26.632 82.8646 25.6494 86.3761 25.6526C89.9714 25.6526 92.742 26.6191 94.6878 28.552C95.2945 29.1547 95.8068 29.8323 96.2248 30.5848C96.6378 29.8532 97.1395 29.1917 97.7297 28.6005C99.6949 26.6321 102.433 25.6495 105.945 25.6527C109.543 25.6527 112.315 26.6192 114.259 28.5522C115.253 29.541 115.994 30.7317 116.479 32.1243V26.0223H123.158V42.3098H133.579V47.6254H116.479V41.5231C116.316 42.0064 116.123 42.4588 115.902 42.8801C115.073 44.474 113.791 45.7865 112.217 46.6518C110.606 47.5506 108.604 48 106.211 48C103.773 48 101.76 47.6118 100.17 46.8354C98.5348 46.0245 97.1812 44.7407 96.2849 43.1507C96.2685 43.1233 96.2523 43.0958 96.2362 43.0682C95.407 44.5766 94.1648 45.8193 92.6534 46.6492C91.0426 47.5481 89.0404 47.9975 86.6467 47.9975C84.2112 47.9975 82.1977 47.6093 80.6063 46.8329C78.9712 46.0226 77.6182 44.7386 76.7235 43.1482C75.7151 41.4697 75.2118 39.3669 75.2134 36.8395ZM81.8893 36.8709C81.8893 39.0536 82.292 40.6209 83.0974 41.5728C83.9028 42.5248 85.0061 43.0008 86.4075 43.0008C87.8428 43.0008 88.9534 42.5345 89.7395 41.6018C90.5255 40.6692 90.9186 38.994 90.9186 36.5762C90.9186 34.5417 90.5078 33.055 89.6863 32.1159C88.8648 31.1768 87.7517 30.7081 86.3471 30.7097C85.7364 30.6877 85.1286 30.8041 84.5692 31.0501C84.0098 31.2961 83.5133 31.6654 83.1167 32.1304C82.3 33.0969 81.8909 34.6771 81.8893 36.8709ZM101.46 36.8711C101.46 39.0537 101.863 40.621 102.668 41.573C103.474 42.5249 104.579 43.0017 105.983 43.0033C107.419 43.0033 108.529 42.537 109.315 41.6044C110.101 40.6717 110.494 38.9965 110.494 36.5787C110.494 34.5443 110.084 33.0575 109.265 32.1184C108.445 31.1794 107.332 30.7106 105.925 30.7122C105.314 30.6887 104.705 30.8041 104.144 31.0497C103.583 31.2954 103.085 31.6649 102.688 32.1305C101.868 33.097 101.459 34.6772 101.46 36.8711Z" fill="#505050"/>
</svg>
